<svg width="120" height="171" viewBox="0 0 120 171" fill="none" xmlns="http://www.w3.org/2000/svg">
<path d="M91.5002 26.9996C108.5 43.4995 113.5 72.4995 83.3175 113.936C66.9071 129.49 48.6944 131.698 40.2527 130.38C25.2519 128.039 14.1776 100.862 32.0719 85.0887C48.6242 70.4986 73.0137 80.9894 73.3361 107.222C73.5827 127.284 40.7555 158.236 23.336 169.222" stroke="#E0E0E0" stroke-width="3" stroke-linecap="round" stroke-dasharray="5 8"/>
<path d="M66.3403 5.81923C62.6356 5.70825 60.1022 9.5254 61.6432 12.8961L69.8329 30.8075C71.4635 34.3738 76.3776 34.7606 78.5459 31.4934L82.3681 25.7345C82.9782 24.8154 82.7288 23.5759 81.8108 22.9642L75.9881 19.084C75.2987 18.6246 75.1122 17.6934 75.5717 17.0041C76.031 16.3146 76.9622 16.1282 77.6517 16.5876L83.4637 20.4606C84.3841 21.074 85.6276 20.8238 86.2392 19.9023L90.0426 14.1716C92.2109 10.9044 89.946 6.52633 86.0264 6.40882L66.3403 5.81923Z" fill="#E0E0E0"/>
</svg>
