<svg width="34" height="34" viewBox="0 0 34 34" fill="none" xmlns="http://www.w3.org/2000/svg">
<g clip-path="url(#clip0_1_1575)">
<path d="M16.9999 5.11426C24.1489 5.11426 29.9653 10.9307 29.9653 18.0796C29.9653 25.229 24.1488 31.0454 16.9999 31.0454C9.8505 31.0454 4.03453 25.229 4.03453 18.0796C4.03453 10.9307 9.8509 5.11426 16.9999 5.11426ZM16.9999 28.6956C22.8531 28.6956 27.6151 23.9333 27.6151 18.0801C27.6151 12.2269 22.8532 7.4649 16.9999 7.4649C11.1466 7.4649 6.3847 12.2269 6.3847 18.0801C6.3847 23.9336 11.1467 28.6956 16.9999 28.6956Z" fill="#03A66B"/>
<path d="M13.3967 17.6881H16.5303V13.1444C16.5303 12.4953 17.0564 11.9692 17.7054 11.9692C18.3545 11.9692 18.8806 12.4953 18.8806 13.1444V18.8632C18.8806 19.5123 18.3545 20.0384 17.7054 20.0384H13.3967C12.7476 20.0384 12.2216 19.5123 12.2216 18.8632C12.2216 18.2142 12.7477 17.6881 13.3967 17.6881Z" fill="#03A66B"/>
<path d="M23.6562 26.4902C24.1388 26.0558 24.8818 26.0953 25.3158 26.5775L28.8412 30.4945C29.2756 30.9767 29.236 31.7198 28.7538 32.1538C28.5294 32.3564 28.2482 32.4558 27.9681 32.4558C27.6465 32.4558 27.3261 32.3246 27.0942 32.0665L23.5688 28.1495C23.1344 27.6672 23.174 26.9242 23.6562 26.4902Z" fill="#03A66B"/>
<path d="M5.15823 30.4947L8.68358 26.5776C9.11681 26.0951 9.86022 26.0559 10.3429 26.4903C10.8254 26.9244 10.8642 27.6674 10.4302 28.1496L6.90484 32.0666C6.67335 32.3244 6.35294 32.4556 6.03133 32.4556C5.75163 32.4556 5.4704 32.3561 5.24555 32.154C4.76298 31.7199 4.7242 30.9768 5.15823 30.4947Z" fill="#03A66B"/>
<path d="M23.8558 3.25681C26.1908 0.970448 29.9546 0.973968 32.2457 3.26544C33.3856 4.4049 34.0084 5.91258 34.0002 7.51071C33.9915 9.08964 33.3656 10.568 32.2371 11.6734C32.0083 11.897 31.7118 12.0086 31.4149 12.0086C31.1141 12.0086 30.8133 11.8935 30.5841 11.6647L23.8468 4.92745C23.6251 4.70539 23.5013 4.4041 23.5029 4.0904C23.5044 3.77657 23.6314 3.47654 23.8558 3.25681ZM31.286 9.04263C31.5214 8.56829 31.6472 8.04342 31.6499 7.49816C31.655 6.53301 31.2767 5.61953 30.5841 4.92698C29.8932 4.23643 28.9797 3.89132 28.0611 3.89132C27.5241 3.89132 26.9851 4.00919 26.4885 4.24499L31.286 9.04263Z" fill="#03A66B"/>
<path d="M1.75463 3.26529C4.0461 0.974217 7.81 0.970299 10.1449 3.25666C10.369 3.4764 10.4963 3.77648 10.4978 4.09019C10.4994 4.40395 10.3753 4.70557 10.1535 4.92723L3.41624 11.6645C3.18707 11.8941 2.88625 12.0088 2.58543 12.0088C2.28853 12.0088 1.99163 11.8972 1.76326 11.6728C0.634359 10.5678 0.00841713 9.0895 0.000183105 7.51049C-0.00805187 5.91283 0.615168 4.40515 1.75463 3.26529ZM2.71426 9.04288L7.51183 4.24531C6.16519 3.60602 4.51101 3.83286 3.41617 4.92763C2.72363 5.62018 2.34525 6.5332 2.35036 7.49881C2.35315 8.04367 2.47885 8.56894 2.71426 9.04288Z" fill="#03A66B"/>
</g>
<defs>
<clipPath id="clip0_1_1575">
<rect width="34" height="34" fill="white" transform="matrix(-1 0 0 1 34 0)"/>
</clipPath>
</defs>
</svg>
