<svg width="155" height="42" viewBox="0 0 155 42" fill="none" xmlns="http://www.w3.org/2000/svg">
<path d="M64.7649 25.8616C63.4896 26.4892 62.2143 26.7174 60.8456 26.7174C56.6776 26.7174 53.7848 24.0644 53.7848 20.3273C53.7848 16.5332 56.6776 13.9372 60.9078 13.9372C63.1163 13.9372 64.9515 14.6504 66.5378 16.1909L69.7728 13.4523C67.6576 11.1986 64.4849 10.0005 60.659 10.0005C53.7226 10.0005 48.6836 14.3081 48.6836 20.3273C48.6836 26.3466 53.7226 30.6542 60.5657 30.6542C63.6762 30.6542 66.9733 29.7698 69.3684 28.1152V20.0135H64.7649V25.8616Z" fill="#2E2E2E"/>
<path d="M78.3417 16.9896V14.9642H73.7071V30.3118H78.5594V23.0659C78.5594 20.1276 80.3324 18.7869 83.0074 18.7869C83.3807 18.7869 83.6918 18.8154 84.0961 18.8439V14.736C81.5144 14.736 79.5237 15.5062 78.3417 16.9896Z" fill="#2E2E2E"/>
<path d="M94.7923 30.54C100.111 30.54 103.968 27.2594 103.968 22.638C103.968 18.0166 100.111 14.736 94.7923 14.736C89.4734 14.736 85.5853 18.0166 85.5853 22.638C85.5853 27.2594 89.4734 30.54 94.7923 30.54ZM94.7923 26.8886C92.3662 26.8886 90.4999 25.291 90.4999 22.638C90.4999 19.985 92.3662 18.3875 94.7923 18.3875C97.2185 18.3875 99.0537 19.985 99.0537 22.638C99.0537 25.291 97.2185 26.8886 94.7923 26.8886Z" fill="#2E2E2E"/>
<path d="M118.7 14.9642L113.91 25.4052L109.276 14.9642H104.268L111.297 30.3118H116.305L123.366 14.9642H118.7Z" fill="#2E2E2E"/>
<path d="M141.283 22.6951C141.283 17.7599 137.488 14.736 132.573 14.736C127.472 14.736 123.646 18.0451 123.646 22.638C123.646 27.2024 127.41 30.54 133.196 30.54C136.213 30.54 138.546 29.6842 140.101 28.0582L137.519 25.4907C136.368 26.4892 135.093 26.9742 133.32 26.9742C130.769 26.9742 128.996 25.8045 128.53 23.8932H141.19C141.221 23.5224 141.283 23.0374 141.283 22.6951ZM132.605 18.1022C134.782 18.1022 136.368 19.3574 136.71 21.2972H128.468C128.81 19.3289 130.396 18.1022 132.605 18.1022Z" fill="#2E2E2E"/>
<path d="M149.148 16.9896V14.9642H144.513V30.3118H149.366V23.0659C149.366 20.1276 151.139 18.7869 153.814 18.7869C154.187 18.7869 154.498 18.8154 154.902 18.8439V14.736C152.321 14.736 150.33 15.5062 149.148 16.9896Z" fill="#2E2E2E"/>
<path d="M41.5775 20.7888C41.5775 32.2701 32.2701 41.5775 20.7888 41.5775C9.30745 41.5775 0 32.2701 0 20.7888C0 9.30745 9.30745 0 20.7888 0C32.2701 0 41.5775 9.30745 41.5775 20.7888Z" fill="url(#paint0_linear_1_1542)"/>
<path d="M20.8302 32.2971C20.8302 33.3225 20.0731 34.1538 19.1392 34.1538C18.2052 34.1538 17.4481 33.3225 17.4481 32.2971C17.4481 31.2717 18.2052 30.4404 19.1392 30.4404C20.0731 30.4404 20.8302 31.2717 20.8302 32.2971Z" fill="white"/>
<path d="M28.2707 32.2971C28.2707 33.3225 27.5135 34.1538 26.5796 34.1538C25.6457 34.1538 24.8885 33.3225 24.8885 32.2971C24.8885 31.2717 25.6457 30.4404 26.5796 30.4404C27.5135 30.4404 28.2707 31.2717 28.2707 32.2971Z" fill="white"/>
<path d="M23.6473 20.6185L24.6586 20.6188V23.1656C24.6586 24.2223 24.0281 25.0785 23.1606 25.196C22.7465 25.2547 22.2381 25.2841 21.6359 25.2841C16.693 25.2841 15.0576 18.673 17.1777 14.3921L11.4275 10.7469C10.8614 10.3883 10.1374 10.6012 9.81058 11.2227C9.4836 11.8443 9.67764 12.6391 10.2437 12.9981L12.4581 14.4019C10.3889 21.8177 14.1325 28.9811 21.3535 28.9811C22.8029 28.9811 24.0924 28.8738 25.2218 28.6584C25.5137 28.6036 25.7824 28.5441 26.0382 28.4792C26.3239 28.4067 26.5936 28.328 26.8613 28.2428C27.6668 27.9871 28.2131 27.0853 28.2131 26.0771V17.6772C28.2131 17.2598 27.9336 16.9214 27.5887 16.9214H20.5345C20.5345 16.9214 20.7134 17.4926 21.0491 18.1859C21.5677 19.2568 22.4604 20.6185 23.6473 20.6185Z" fill="white"/>
<path d="M14.5034 10.5812C17.1292 7.67073 21.1381 7.37737 24.8213 7.43067C25.1942 7.43611 25.5666 7.44155 25.9378 7.44337C26.0564 7.44373 26.138 7.575 26.0944 7.69612C25.2885 9.93536 24.5846 10.9776 22.4829 11.1411C20.849 11.1411 19.3163 11.7336 18.1943 12.9209L14.5034 10.5812Z" fill="white"/>
<defs>
<linearGradient id="paint0_linear_1_1542" x1="9.00847" y1="1.48491" x2="43.821" y2="33.9766" gradientUnits="userSpaceOnUse">
<stop stop-color="#FF5E5F"/>
<stop offset="1" stop-color="#F54748"/>
</linearGradient>
</defs>
</svg>
